<svg xmlns="http://www.w3.org/2000/svg" viewBox="0 0 1000 512.998">
	<path fill="#c83e2c" d="m977.974 466.641 2.177-3.97c.384-.64 1.28-.512 1.665-.256.128.128 3.585 2.561 6.787 2.561 1.92 0 3.33-1.152 3.33-2.817 0-2.049-1.665-3.458-4.867-4.738-4.098-1.665-9.22-4.738-9.22-10.5 0-4.739 3.586-9.477 10.885-9.477 4.866 0 8.708 2.561 10.116 3.586.513.384.513 1.152.257 1.536l-2.433 3.586c-.385.512-1.153.896-1.665.64-.384-.256-3.842-2.817-6.787-2.817-1.665 0-2.946 1.152-2.946 2.433 0 1.793 1.409 3.073 5.123 4.61 3.713 1.409 9.604 4.354 9.604 10.757 0 4.866-4.226 9.86-11.141 9.86-6.147 0-9.604-2.56-10.629-3.585-.512-.64-.64-.769-.256-1.409m-26.892-27.788c0-.513.384-.897.896-.897h19.593c.512 0 .897.384.897.897v5.122a.875.875 0 0 1-.897.896H958.51v5.89h10.757c.512 0 .897.385.897.897v5.123a.875.875 0 0 1-.897.896H958.51v6.403h13.062c.512 0 .897.384.897.896v5.123a.875.875 0 0 1-.897.896h-19.593a.875.875 0 0 1-.896-.896zm-16.52 0c0-.513.385-.897.897-.897h5.635c.512 0 .896.384.896.897v31.374a.875.875 0 0 1-.896.896h-5.635a.875.875 0 0 1-.896-.896zm-32.782 0c0-.513.384-.897.896-.897h14.215c5.634 0 10.372 4.61 10.372 10.245 0 4.354-2.945 7.811-7.043 9.476l6.531 12.037c.384.64 0 1.41-.768 1.41h-6.403c-.384 0-.64-.257-.768-.385l-6.275-12.55h-3.33v12.038a.875.875 0 0 1-.896.896h-5.635a.875.875 0 0 1-.896-.896zm14.47 13.318c1.921 0 3.586-1.793 3.586-3.842s-1.665-3.586-3.586-3.586h-7.043v7.428zm-43.027-13.318c0-.513.384-.897.897-.897h19.592c.513 0 .897.384.897.897v5.122a.875.875 0 0 1-.897.896h-13.061v5.89h10.756c.513 0 .897.385.897.897v5.123a.875.875 0 0 1-.897.896h-10.756v6.403h13.061c.513 0 .897.384.897.896v5.123a.875.875 0 0 1-.897.896H874.12a.875.875 0 0 1-.897-.896zm6.275-4.226-1.024-2.05c-.129-.383 0-.768.256-.896l8.067-4.866c.256-.128 1.025-.256 1.28.128l1.666 2.818c.384.768.128 1.152-.257 1.408l-8.58 3.842c-.768.384-1.152 0-1.408-.384m-34.575 32.014 2.176-3.97c.385-.64 1.281-.512 1.665-.256.128.128 3.586 2.561 6.787 2.561 1.921 0 3.33-1.152 3.33-2.817 0-2.049-1.665-3.458-4.866-4.738-4.098-1.665-9.22-4.738-9.22-10.5 0-4.739 3.585-9.477 10.884-9.477 4.867 0 8.708 2.561 10.117 3.586.512.384.512 1.152.256 1.536l-2.433 3.586c-.384.512-1.153.896-1.665.64-.384-.256-3.842-2.817-6.787-2.817-1.665 0-2.945 1.152-2.945 2.433 0 1.793 1.408 3.073 5.122 4.61 3.714 1.409 9.604 4.354 9.604 10.757 0 4.866-4.226 9.86-11.14 9.86-6.147 0-9.605-2.56-10.63-3.585-.384-.64-.64-.769-.255-1.409m-43.028-22.794c0-3.586 2.818-6.403 6.403-6.403 3.458 0 6.403 2.817 6.403 6.403s-2.945 6.403-6.403 6.403-6.403-2.818-6.403-6.403m19.85-5.379c.127-.384.511-.512.767-.512h3.586c.768 0 1.153.64.768 1.28l-16.39 31.375c-.129.128-.513.512-.77.512h-3.457c-.768 0-1.152-.64-.768-1.28zm-11.782 5.379c0-.897-.768-1.665-1.665-1.665-.896 0-1.665.768-1.665 1.665 0 .896.769 1.665 1.665 1.665.897 0 1.665-.769 1.665-1.665m14.214 14.983c3.586 0 6.403 2.817 6.403 6.402 0 3.458-2.945 6.403-6.403 6.403s-6.403-2.945-6.403-6.403c0-3.585 2.946-6.402 6.403-6.402m0 7.94c.897 0 1.665-.77 1.665-1.666s-.768-1.664-1.665-1.664c-.896 0-1.665.768-1.665 1.664.129.897.897 1.665 1.665 1.665zm-55.833-11.782c0-10.373 4.354-16.648 12.166-16.648 7.811 0 12.165 6.147 12.165 16.648s-4.354 16.647-12.165 16.647c-7.812 0-12.166-6.275-12.166-16.647m16.648 0c0-6.147-1.665-9.733-4.482-9.733s-4.482 3.458-4.482 9.733 1.664 9.732 4.482 9.732c2.817 0 4.482-3.457 4.482-9.732m-46.229 0c0-10.373 4.354-16.648 12.165-16.648 7.812 0 12.166 6.147 12.166 16.648s-4.354 16.647-12.166 16.647c-7.811 0-12.165-6.275-12.165-16.647m16.647 0c0-6.147-1.664-9.733-4.482-9.733-2.817 0-4.482 3.458-4.482 9.733s1.665 9.732 4.482 9.732 4.482-3.457 4.482-9.732m-30.35-6.147h-4.61a.875.875 0 0 1-.896-.896v-2.946c0-.128.128-.512.256-.768l6.916-5.378h4.354c.512 0 .896.384.896.896v30.478a.875.875 0 0 1-.896.896h-5.25a.875.875 0 0 1-.897-.896V448.84zm-23.946 13.83c2.305 0 5.635 1.793 5.635 7.171 0 6.531-4.354 9.86-5.635 11.141-.384.385-.896.385-1.28 0l-1.025-1.152c-.384-.384-.384-.896.128-1.28.512-.513 4.226-3.202 4.226-7.428 0 0-1.024.512-2.433.512-2.433 0-4.354-2.049-4.354-4.354s1.793-4.61 4.738-4.61m-38.161-24.33c0-.513.384-.897.896-.897h1.153l18.952 18.184v-16.775c0-.513.385-.897.897-.897h5.634c.513 0 .897.384.897.897v31.886a.875.875 0 0 1-.897.896h-.768c-.128 0-.512-.128-.64-.256l-18.569-18.824v17.672a.875.875 0 0 1-.896.896h-5.635a.875.875 0 0 1-.896-.896zm-22.794-.897c9.476 0 17.031 7.683 17.031 17.16s-7.555 17.031-17.031 17.031-17.032-7.555-17.032-17.031c0-9.477 7.556-17.16 17.032-17.16m0 26.508a9.455 9.455 0 0 0 9.476-9.476 9.455 9.455 0 0 0-9.476-9.477c-5.123 0-9.476 4.354-9.476 9.477.128 5.25 4.353 9.476 9.476 9.476m-30.222-25.1c0-.512.384-.896.897-.896h5.634c.512 0 .897.384.897.897v31.374a.875.875 0 0 1-.897.896h-5.634a.875.875 0 0 1-.897-.896zm-19.849 6.02h-6.787a.875.875 0 0 1-.896-.897v-5.122c0-.513.384-.897.896-.897h21.002c.512 0 .896.384.896.897v5.122a.875.875 0 0 1-.896.896h-6.787v25.356a.875.875 0 0 1-.897.896h-5.634a.875.875 0 0 1-.897-.896zm-21.513-7.428c4.738 0 8.195 1.409 11.525 4.354.384.384.384.896 0 1.28l-3.714 3.842c-.384.384-.896.384-1.152 0-1.793-1.536-4.098-2.433-6.403-2.433-5.379 0-9.348 4.482-9.348 9.732s3.97 9.605 9.348 9.605c2.177 0 4.61-.769 6.403-2.305a1.16 1.16 0 0 1 1.28 0l3.714 3.97c.384.384.256.896 0 1.28-3.201 3.073-7.3 4.61-11.525 4.61-9.476 0-17.16-7.555-17.16-17.031 0-9.477 7.555-16.904 17.032-16.904m-30.35 1.409c0-.513.384-.897.897-.897h5.634c.512 0 .896.384.896.897v31.374a.875.875 0 0 1-.896.896h-5.634a.875.875 0 0 1-.897-.896zm-26.636 0c0-.513.384-.897.897-.897h19.592c.513 0 .897.384.897.897v5.122a.875.875 0 0 1-.897.896h-13.061v6.787h10.756c.513 0 .897.385.897.897v5.122a.875.875 0 0 1-.897.896h-10.756V470.1a.875.875 0 0 1-.897.896h-5.634a.875.875 0 0 1-.897-.896zm-44.948 4.994c0-3.586 2.817-6.403 6.403-6.403 3.457 0 6.403 2.817 6.403 6.403s-2.946 6.403-6.403 6.403c-3.458 0-6.403-2.818-6.403-6.403m19.849-5.379c.128-.384.512-.512.768-.512h3.586c.768 0 1.152.64.768 1.28l-16.391 31.375c-.128.128-.512.512-.768.512h-3.458c-.768 0-1.153-.64-.768-1.28zm-11.781 5.379c0-.897-.769-1.665-1.665-1.665s-1.665.768-1.665 1.665c0 .896.769 1.665 1.665 1.665s1.665-.769 1.665-1.665m14.214 14.983c3.586 0 6.403 2.817 6.403 6.402 0 3.458-2.945 6.403-6.403 6.403s-6.403-2.945-6.403-6.403c0-3.585 2.945-6.402 6.403-6.402m0 7.94c.896 0 1.665-.77 1.665-1.666s-.769-1.664-1.665-1.664-1.665.768-1.665 1.664c.128.897.897 1.665 1.665 1.665zm-55.961-11.782c0-10.373 4.354-16.648 12.165-16.648 7.684 0 12.166 6.147 12.166 16.648s-4.354 16.647-12.166 16.647c-7.683 0-12.165-6.275-12.165-16.647m16.647 0c0-6.147-1.664-9.733-4.482-9.733-2.945 0-4.482 3.458-4.482 9.733s1.665 9.732 4.482 9.732c2.946 0 4.482-3.457 4.482-9.732M168.14 221.027H267c2.305 0 4.097-1.793 4.097-4.098v-18.44c0-2.305-1.792-4.098-4.097-4.098h-74.402v-50.839h60.7c2.305 0 4.097-1.792 4.097-4.098v-18.568c0-2.305-1.792-4.098-4.098-4.098h-60.699V79.396H267c2.305 0 4.097-1.793 4.097-4.098v-18.44c0-2.306-1.792-4.098-4.097-4.098h-98.86c-2.306 0-4.099 1.792-4.099 4.097V216.93c0 2.177 1.793 4.098 4.098 4.098m-42.259-28.685H38.801c-2.56 0-4.738-2.177-4.738-4.738V13.062C34.063 5.89 28.173 0 21.001 0h-7.94C5.892 0 0 5.89 0 13.062v197.464c0 7.172 5.89 13.062 13.062 13.062h87.079c2.561 0 4.738 2.177 4.738 4.738v206.685c0 27.66-12.806 45.588-32.655 45.588-32.014 0-33.679-35.087-33.679-42.13v-16.776c0-7.171-5.89-13.062-13.062-13.062h-7.94c-7.17 0-13.061 5.89-13.061 13.062v14.855c0 24.202 7.043 44.18 20.233 57.882 11.653 12.037 27.789 18.568 45.588 18.568 34.064 0 68.383-23.307 68.383-75.298V205.404c.128-7.3-5.634-13.062-12.806-13.062m520.682 139.199c-.128 0-.256-.129-.385-.129l-34.19-15.11c-12.935-5.763-19.081-9.092-19.081-21.13 0-7.94 5.762-17.16 22.025-17.16 13.703 0 21.77 7.556 25.612 23.563.256 1.153 1.024 2.049 1.92 2.561 1.025.512 2.178.769 3.202.384l19.721-5.89c2.177-.64 3.33-2.817 2.817-4.994-7.427-28.43-25.74-43.412-52.887-43.412-30.222 0-51.223 19.08-51.223 46.357 0 30.221 20.36 38.673 42.003 47.51 2.048.767 4.097 1.664 6.146 2.56l3.842 1.537c16.007 6.403 25.868 11.141 25.868 25.74 0 16.903-13.446 22.922-26.124 22.922-16.904 0-26.764-9.86-31.118-30.862-.256-1.153-.896-2.177-1.92-2.69-1.025-.64-2.178-.768-3.33-.383l-18.44 5.89c-1.922.64-3.202 2.561-2.818 4.61 5.507 32.015 27.02 51.095 57.626 51.095 33.423 0 54.937-20.36 54.937-51.863.128-18.056-8.324-32.27-24.203-41.106m-136.766 14.598c18.056-7.811 30.606-26.764 30.606-47.125 0-16.007-5.25-28.3-15.495-36.753-8.964-7.299-21.642-11.14-36.624-11.14H433.73c-2.305 0-4.098 1.792-4.098 4.097v160.456c0 2.305 1.793 4.098 4.098 4.098h20.618c2.305 0 4.097-1.793 4.097-4.098v-64.54h23.307l39.826 70.559c.512 1.024 1.408 1.665 2.56 1.92.385.129.641.129 1.025.129.769 0 1.537-.256 2.177-.64l17.8-10.757c.897-.512 1.665-1.537 1.921-2.561s.128-2.177-.512-3.074zm.897-47.125c0 15.751-11.141 25.483-29.197 25.483h-22.923v-46.613h29.198c19.976 0 22.922 13.19 22.922 21.13M404.789 251.12h-20.617c-2.305 0-4.098 1.793-4.098 4.098V364.58c0 21.002-3.97 30.35-27.276 30.35-17.672 0-23.947-7.94-23.947-30.35V255.22c0-2.306-1.792-4.098-4.098-4.098h-20.617c-2.305 0-4.098 1.792-4.098 4.097V373.16c0 13.446 4.739 25.612 13.19 34.32 9.605 9.86 23.819 15.11 41.107 15.11 17.287 0 31.63-5.25 41.49-15.239 8.452-8.58 13.19-20.36 13.19-32.91V255.218c-.128-2.177-1.92-4.097-4.226-4.097m-183.506-2.818c-14.342 0-61.083 6.275-61.083 87.335 0 30.222 6.659 53.144 19.849 68.255 10.5 12.037 25.099 18.696 41.362 18.696 25.227 0 43.668-13.574 53.4-39.185 5.122-13.318 7.684-29.838 7.684-47.766 0-30.221-6.66-53.4-19.977-68.51-10.501-12.166-25.1-18.825-41.235-18.825m31.374 87.335c0 15.751-2.049 29.197-5.762 39.058-5.25 13.702-13.574 20.233-25.484 20.233s-20.233-6.659-25.483-20.233c-3.714-9.86-5.763-23.307-5.763-39.058 0-15.879 2.05-29.453 5.763-39.313 5.25-13.702 13.574-20.361 25.483-20.361s20.233 6.659 25.484 20.36c3.713 9.861 5.762 23.435 5.762 39.314m100.27-112.562c33.038 0 54.295-20.105 54.295-51.223 0-17.928-8.323-32.014-24.074-40.722-.128 0-.256-.128-.385-.128l-33.807-14.855c-12.805-5.763-18.824-8.964-18.824-20.873 0-7.812 5.634-16.904 21.77-16.904 13.446 0 21.513 7.427 25.227 23.307.256 1.152 1.024 2.048 1.92 2.56 1.025.513 2.178.769 3.202.385l19.465-5.763c2.177-.64 3.33-2.817 2.817-4.994-7.299-28.045-25.355-42.9-52.375-42.9-29.838 0-50.71 18.825-50.71 45.845 0 29.966 20.104 38.161 41.49 46.997 2.049.769 3.97 1.665 6.018 2.562l3.842 1.536c15.88 6.403 25.612 11.013 25.612 25.356 0 16.647-13.318 22.666-25.74 22.666-16.647 0-26.38-9.733-30.606-30.478-.256-1.152-.896-2.177-1.92-2.69-1.025-.64-2.178-.767-3.33-.383l-18.312 5.762c-1.921.64-3.202 2.561-2.818 4.61 5.763 31.374 27.02 50.327 57.242 50.327M196.952 465.489v14.726c.769 0 1.537.128 2.433.128h14.727c3.201 0 3.201 0 3.33 3.33v2.433c0 2.945 0 3.073-2.946 3.073H197.08c-.128 1.025-.256 1.793-.256 2.561v15.751c0 2.562-.128 2.562-2.689 2.69h-5.122c-1.537 0-1.793-.385-1.921-1.921v-48.278c0-3.33 0-3.457 3.585-3.457h28.942c.896.128 1.536.512 1.536 1.536v5.763c0 .896-.64 1.536-1.537 1.536h-22.666zm62.364 23.178c.384.64.64 1.409 1.025 2.049 2.817 5.122 5.506 10.244 8.323 15.495.256.512.64 1.024.769 1.536.64 1.537.256 2.305-1.409 2.305h-6.659c-1.409.129-2.049-.64-2.69-1.792l-8.45-16.904c-.257-.512-.385-1.024-.77-1.409-.383-.384-.896-.896-1.28-.896-2.561-.128-4.994 0-7.811 0 0 .896-.128 1.793-.128 2.561v16.904q0 1.536-1.537 1.536h-6.659q-1.536 0-1.537-1.536v-48.662c0-3.201 0-3.33 3.202-3.33h19.336c4.61 0 8.58 1.281 12.038 4.354 7.555 6.788 7.171 18.185-.897 24.46-1.28 1.28-3.073 2.176-4.866 3.329m-18.824-7.94c2.177.513 12.805.513 14.598 0 4.226-1.152 6.787-5.762 5.507-9.988-1.025-3.202-3.842-5.379-7.428-5.379-3.713-.128-7.427 0-11.14 0-.513 0-1.025.129-1.537.257zM168.78 510.95c-.513-.384-1.153-.64-1.665-1.025-2.817-1.664-4.226-4.866-3.458-7.94a6.97 6.97 0 0 1 6.787-5.378c3.33 0 6.275 2.306 7.044 5.379.768 3.201-.513 6.275-3.458 7.94-.512.384-1.153.64-1.665 1.024z"/>
</svg>
